<svg id="Layer_1" data-name="Layer 1" xmlns="http://www.w3.org/2000/svg" xmlns:xlink="http://www.w3.org/1999/xlink" viewBox="0 0 576 576"><defs><style>.cls-1{fill:url(#linear-gradient);}.cls-2{fill:url(#linear-gradient-2);}.cls-3{fill:#fff;}</style><linearGradient id="linear-gradient" x1="339.86" y1="268.86" x2="205.04" y2="271.11" gradientUnits="userSpaceOnUse"><stop offset="0" stop-color="#e58c8a"/><stop offset="1" stop-color="#eec0c5"/></linearGradient><linearGradient id="linear-gradient-2" x1="-141.17" y1="576.49" x2="594.39" y2="82.04" xlink:href="#linear-gradient"/></defs><title>Untitled-1</title><rect class="cls-1" x="204.84" y="201.94" width="136.06" height="136.06" rx="68.03"/><rect class="cls-2" width="576" height="576" rx="288"/><path class="cls-3" d="M523.88,288a75.28,75.28,0,0,0,25.4-61C547.12,191,519,161.29,484,157.79a70.59,70.59,0,0,0-31.95,4,73,73,0,0,0-26.68,17.3l-88.79,92.11h0l-31.79-31.79,92.06-88.74A73.12,73.12,0,0,0,414.09,124a70.72,70.72,0,0,0,4-31.95c-3.51-35.08-33.26-63.17-69.2-65.33a75.26,75.26,0,0,0-61,25.4,75.26,75.26,0,0,0-61-25.4C191,28.91,161.21,57,157.7,92.08a70.72,70.72,0,0,0,4,32A73,73,0,0,0,179,150.71l92,88.74-31.7,31.7-88.71-92A73,73,0,0,0,124,161.82a70.59,70.59,0,0,0-31.95-4C57,161.29,28.88,191,26.72,227a75.28,75.28,0,0,0,25.4,61,75.3,75.3,0,0,0-25.4,61C28.88,384.94,57,414.69,92.05,418.2a70.72,70.72,0,0,0,32-4,73.12,73.12,0,0,0,26.68-17.3l88.71-92,31.71,31.71L179,425.29A73,73,0,0,0,161.73,452a70.72,70.72,0,0,0-4,31.95c3.51,35.08,33.26,63.17,69.2,65.33a75.26,75.26,0,0,0,61-25.4,75.26,75.26,0,0,0,61,25.4c35.94-2.16,65.69-30.25,69.2-65.33a70.72,70.72,0,0,0-4-31.95,73.12,73.12,0,0,0-17.3-26.68l-92.07-88.74,31.8-31.8h0l88.79,92.11A73.12,73.12,0,0,0,452,414.17a70.72,70.72,0,0,0,31.95,4c35.08-3.51,63.17-33.26,65.33-69.19A75.3,75.3,0,0,0,523.88,288ZM287.42,83a.73.73,0,0,1,1,0l27.22,26.52h0a16.93,16.93,0,0,1,4,6.19,16.43,16.43,0,0,1,1,5.72c0,9.3-7.53,15.77-17,15.77-6.86,0-12.95-2.9-15.72-8.57-2.77,5.67-8.86,8.57-15.72,8.57-9.49,0-17-6.47-17-15.77a16.43,16.43,0,0,1,1-5.72,16.93,16.93,0,0,1,4-6.19h0ZM184.55,116a47.83,47.83,0,0,1-3-16.56c0-1.65.09-3.31.25-5,2.37-23.59,22.37-42.47,46.53-43.93a50.68,50.68,0,0,1,43.35,19.89L244,97.43a33.18,33.18,0,0,0,14.17,55.68,35,35,0,0,0,29.78-4.87,35,35,0,0,0,29.78,4.87,33.45,33.45,0,0,0,22.55-21.66,33,33,0,0,0-.39-21.71,33.41,33.41,0,0,0-8-12.31L304.09,70.38a50.68,50.68,0,0,1,43.35-19.89C371.6,52,391.61,70.83,394,94.42c.16,1.67.25,3.33.25,5a47.83,47.83,0,0,1-3,16.56,49,49,0,0,1-11.6,17.9c-30.5,29.55-74.07,71.69-91.76,88.54-17.69-16.85-61.26-59-91.76-88.54A49,49,0,0,1,184.55,116Zm-50.72,263.8a48.88,48.88,0,0,1-17.9,11.59,47.83,47.83,0,0,1-16.56,2.95c-1.65,0-3.31-.09-5-.25-23.59-2.36-42.47-22.37-43.93-46.53a50.66,50.66,0,0,1,19.89-43.34L97.4,332a33.41,33.41,0,0,0,12.31,8,33,33,0,0,0,21.71.39,33.45,33.45,0,0,0,21.66-22.55A34.93,34.93,0,0,0,148.21,288a34.93,34.93,0,0,0,4.87-29.78A33.15,33.15,0,0,0,97.4,244L70.35,271.81a50.68,50.68,0,0,1-19.89-43.35c1.46-24.16,20.34-44.16,43.93-46.53,1.67-.16,3.33-.25,5-.25a47.6,47.6,0,0,1,16.56,3,48.88,48.88,0,0,1,17.9,11.59c29.56,30.5,71.69,74.07,88.54,91.76C205.52,305.69,163.39,349.26,133.83,379.76Zm3.32-76.05c0,9.49-6.47,17-15.77,17a16.47,16.47,0,0,1-5.72-1,16.88,16.88,0,0,1-6.19-4h0L83,288.48a.79.79,0,0,1-.19-.49.83.83,0,0,1,.19-.49l26.52-27.21h0a16.91,16.91,0,0,1,6.19-4,16.7,16.7,0,0,1,5.72-1c9.3,0,15.77,7.53,15.77,17,0,6.86-2.9,13-8.57,15.72C134.25,290.76,137.15,296.86,137.15,303.71ZM288.4,493a.73.73,0,0,1-1,0L260.2,466.5h0a16.93,16.93,0,0,1-4-6.19,16.43,16.43,0,0,1-1-5.72c0-9.3,7.53-15.77,17-15.77,6.86,0,12.95,2.9,15.72,8.57,2.77-5.67,8.86-8.57,15.72-8.57,9.49,0,17,6.47,17,15.77a16.43,16.43,0,0,1-1,5.72,16.93,16.93,0,0,1-4,6.19h0Zm102.87-33a47.83,47.83,0,0,1,3,16.56c0,1.65-.09,3.31-.25,5-2.36,23.59-22.37,42.47-46.53,43.93a50.68,50.68,0,0,1-43.35-19.89l27.78-27.05a33.41,33.41,0,0,0,8-12.31,33,33,0,0,0,.39-21.71,33.45,33.45,0,0,0-22.55-21.66,35,35,0,0,0-29.78,4.87,35,35,0,0,0-29.78-4.87,33.41,33.41,0,0,0-22.54,21.66,33.07,33.07,0,0,0,8.37,34l27.77,27.05a50.68,50.68,0,0,1-43.35,19.89c-24.16-1.46-44.16-20.34-46.53-43.93-.16-1.67-.25-3.33-.25-5a47.83,47.83,0,0,1,3-16.56,49,49,0,0,1,11.6-17.9c30.5-29.55,74.07-71.69,91.76-88.54,17.69,16.85,61.26,59,91.76,88.54A49,49,0,0,1,391.27,460ZM287.91,320.9,255,288l0,0,0,0,32.86-32.87h0l32.9,32.9Zm193.7,73.15c-1.67.16-3.33.25-5,.25a47.83,47.83,0,0,1-16.56-2.95,48.88,48.88,0,0,1-17.9-11.59c-29.56-30.5-71.69-74.07-88.54-91.77,16.85-17.69,59-61.26,88.54-91.76a48.88,48.88,0,0,1,17.9-11.59,47.6,47.6,0,0,1,16.56-3c1.65,0,3.31.09,5,.25,23.59,2.37,42.47,22.37,43.93,46.53a50.68,50.68,0,0,1-19.89,43.35L478.6,244a33.18,33.18,0,0,0-55.68,14.17A34.93,34.93,0,0,0,427.79,288a34.93,34.93,0,0,0-4.87,29.78,33.45,33.45,0,0,0,21.66,22.55,33,33,0,0,0,21.71-.39,33.41,33.41,0,0,0,12.31-8l27-27.77a50.66,50.66,0,0,1,19.89,43.34C524.08,371.68,505.2,391.69,481.61,394.05ZM438.85,272.27c0-9.48,6.47-17,15.77-17a16.7,16.7,0,0,1,5.72,1,16.91,16.91,0,0,1,6.19,4h0l26.52,27.21a.83.83,0,0,1,.19.49.79.79,0,0,1-.19.49L466.53,315.7h0a16.88,16.88,0,0,1-6.19,4,16.47,16.47,0,0,1-5.72,1c-9.3,0-15.77-7.53-15.77-17,0-6.85,2.9-12.95,8.57-15.72C441.75,285.22,438.85,279.13,438.85,272.27Z"/></svg>